<?xml version="1.0" encoding="utf-8"?>
<!-- Generator: Adobe Illustrator 18.0.0, SVG Export Plug-In . SVG Version: 6.00 Build 0)  -->
<!DOCTYPE svg PUBLIC "-//W3C//DTD SVG 1.1//EN" "http://www.w3.org/Graphics/SVG/1.1/DTD/svg11.dtd">
<svg version="1.1" id="Layer_1" xmlns="http://www.w3.org/2000/svg" xmlns:xlink="http://www.w3.org/1999/xlink" x="0px" y="0px"
	 viewBox="0 0 50 50" enable-background="new 0 0 50 50" xml:space="preserve">
<g>
	<path fill="#CCCCCC" d="M25,17.6c-0.6,0-1.2,0.2-1.6,0.7s-0.7,1-0.7,1.6c0,0.6,0.2,1.2,0.7,1.6c0.5,0.5,1,0.7,1.6,0.7
		c0.6,0,1.2-0.2,1.6-0.7c0.5-0.5,0.7-1,0.7-1.6c0-0.6-0.2-1.2-0.7-1.6C26.2,17.8,25.6,17.6,25,17.6z"/>
	<path fill="#CCCCCC" d="M0,0v50h50V0H0z M31.7,23.4c-0.6,1.5-1.2,3-1.8,4.4c-0.7,1.4-1.4,3-2.3,4.7c-0.9,1.7-1.5,2.9-1.8,3.5
		c-0.3,0.6-0.6,1.1-0.8,1.5c0,0.1-0.6-1.1-1.9-3.5c-1.3-2.4-2.5-5-3.8-7.9c-1.3-2.9-1.9-5-1.9-6.2c0-2.1,0.7-3.8,2.2-5.2
		c1.5-1.4,3.2-2.2,5.3-2.2s3.9,0.7,5.3,2.2c1.5,1.4,2.2,3.2,2.2,5.2C32.5,20.7,32.2,21.9,31.7,23.4z"/>
</g>
</svg>
