<?xml version="1.0" encoding="utf-8"?>
<!-- Generator: Adobe Illustrator 18.0.0, SVG Export Plug-In . SVG Version: 6.00 Build 0)  -->
<!DOCTYPE svg PUBLIC "-//W3C//DTD SVG 1.1//EN" "http://www.w3.org/Graphics/SVG/1.1/DTD/svg11.dtd">
<svg version="1.1" id="Layer_1" xmlns="http://www.w3.org/2000/svg" xmlns:xlink="http://www.w3.org/1999/xlink" x="0px" y="0px"
	 viewBox="0 0 50 50" enable-background="new 0 0 50 50" xml:space="preserve">
<rect fill="#CCCCCC" width="50" height="50"/>
<g>
	<path fill="#FFFFFF" d="M12.5,37.5l2.7-0.4l-2.4-2.4L12.5,37.5z M12.5,37.5"/>
	<g>
		<path fill="#FFFFFF" d="M13.3,31.6L13,33.7l3.3,3.3l2.1-0.3L33,22.2L27.8,17L13.3,31.6z M13.3,31.6"/>
		<path fill="#FFFFFF" d="M33.4,12.8c-0.2-0.2-0.4-0.3-0.6-0.3c-0.2,0-0.5,0.1-0.7,0.3l-3.5,3.5l5.2,5.1l3.5-3.5
			c0.4-0.4,0.4-1,0-1.3L33.4,12.8z M33.4,12.8"/>
	</g>
</g>
</svg>
