<?xml version="1.0" encoding="utf-8"?>
<!-- Generator: Adobe Illustrator 18.0.0, SVG Export Plug-In . SVG Version: 6.00 Build 0)  -->
<!DOCTYPE svg PUBLIC "-//W3C//DTD SVG 1.1//EN" "http://www.w3.org/Graphics/SVG/1.1/DTD/svg11.dtd">
<svg version="1.1" id="Layer_1" xmlns="http://www.w3.org/2000/svg" xmlns:xlink="http://www.w3.org/1999/xlink" x="0px" y="0px"
	 viewBox="0 0 50 50" enable-background="new 0 0 50 50" xml:space="preserve">
<path fill="#CCCCCC" d="M0,0v50h50V0H0z M14.6,16H36c0.5,0,0.9,0.1,1.2,0.4L25.3,26.5L13.4,16.4C13.7,16.1,14.1,16,14.6,16z
	 M13,17.3l8.6,7.5L13,32.2V17.3z M36,34H14.6c-0.5,0-0.9-0.4-1.2-0.7l8.8-7.7l3.1,2.7l3.1-2.7l8.8,7.8C36.9,33.6,36.5,34,36,34z
	 M38,32.2l-8.6-7.3l8.6-7.5V32.2z"/>
</svg>
