<?xml version="1.0" encoding="utf-8"?>
<!-- Generator: Adobe Illustrator 18.0.0, SVG Export Plug-In . SVG Version: 6.00 Build 0)  -->
<!DOCTYPE svg PUBLIC "-//W3C//DTD SVG 1.1//EN" "http://www.w3.org/Graphics/SVG/1.1/DTD/svg11.dtd">
<svg version="1.1" id="Layer_1" xmlns="http://www.w3.org/2000/svg" xmlns:xlink="http://www.w3.org/1999/xlink" x="0px" y="0px"
	 viewBox="0 0 50 50" enable-background="new 0 0 50 50" xml:space="preserve">
<g>
	<path fill="#CCCCCC" d="M25,37c-0.5,0-1,0.4-1,1c0,0.5,0.4,1,1,1s1-0.5,1-1S25.6,37,25,37z"/>
	<rect x="17.7" y="13.2" fill="#CCCCCC" width="14.6" height="23"/>
	<path fill="#CCCCCC" d="M22.9,11.9h4.3c0.1,0,0.2-0.1,0.2-0.2c0-0.1-0.1-0.2-0.2-0.2h-4.3c-0.2,0-0.3,0.1-0.2,0.2
		C22.7,11.8,22.8,11.9,22.9,11.9z"/>
	<path fill="#CCCCCC" d="M0,0v50h50V0H0z M33.7,38c0,1.1-0.9,2-2,2H18.3c-1.1,0-2-0.9-2-2V12c0-1.1,0.9-2,2-2h13.4c1.1,0,2,0.9,2,2
		V38z"/>
</g>
</svg>
