<?xml version="1.0" encoding="utf-8"?>
<!-- Generator: Adobe Illustrator 18.0.0, SVG Export Plug-In . SVG Version: 6.00 Build 0)  -->
<!DOCTYPE svg PUBLIC "-//W3C//DTD SVG 1.1//EN" "http://www.w3.org/Graphics/SVG/1.1/DTD/svg11.dtd">
<svg version="1.1" id="Layer_1" xmlns="http://www.w3.org/2000/svg" xmlns:xlink="http://www.w3.org/1999/xlink" x="0px" y="0px"
	 viewBox="0 0 50 50" enable-background="new 0 0 50 50" xml:space="preserve">
<g>
	<path fill="#CCCCCC" d="M32,25.5c-1.1,0.7-3.5-1.4-3.1,1c0.6,1.1,3.4-1.5,2,0.8c-0.9,1.6-3.2,5.1-2.9,7c0,2.7-2.7,0.6-3.7-0.3
		c-0.6-1.8-0.2-4.9-1.9-5.8c-1.8-0.1-3.4-0.2-4.1-2.3c-0.4-1.5,0.5-3.6,2-4c2.3-1.4,3.1,1.7,5.3,1.7c0.7-0.7,2.5-0.9,2.6-1.7
		c-1.4-0.2,1.8-1.2-0.1-1.7c-1.1,0.1-1.7,1.1-1.2,1.9c-2.1,0.5-2.1-3-4.1-1.9c-0.1,1.7-3.2,0.6-1.1,0.2c0.7-0.3-1.2-1.2-0.2-1.1
		c0.5,0,2.2-0.6,1.8-1c1-0.6,1.8,1.4,2.7,0c0.7-1.1-0.3-1.3-1.1-0.8c-0.5-0.5,0.8-1.7,2-2.2c0.4-0.2,0.8-0.3,1-0.2
		c0.6,0.7,1.7,0.8,1.7-0.1c-1.5-0.7-3.1-1.1-4.7-1.1c-2.4,0-4.7,0.8-6.5,2.2c0.5,0.2,0.8,0.5,0.3,0.9c-0.4,1.1-1.9,2.6-3.3,2.4
		c-0.7,1.2-1.2,2.5-1.4,3.9c1.1,0.4,1.4,1.1,1.1,1.4c-0.6,0.5-0.9,1.2-1.1,2c0.4,2.2,1.4,4.3,3.1,5.9c2.1,2.1,4.8,3.2,7.7,3.2
		c2.9,0,5.7-1.1,7.7-3.2c1.5-1.5,2.6-3.5,3-5.5c-0.3,0.5-0.6,0.7-0.8-0.4C34.7,25,33.1,26.1,32,25.5z"/>
	<path fill="#CCCCCC" d="M0,0v50h50V0H0z M33.8,33.8c-2.4,2.4-5.5,3.7-8.8,3.7s-6.5-1.3-8.8-3.7c-2.4-2.4-3.7-5.5-3.7-8.8
		s1.3-6.5,3.7-8.8c2.4-2.4,5.5-3.7,8.8-3.7s6.5,1.3,8.8,3.7c2.4,2.4,3.7,5.5,3.7,8.8S36.2,31.5,33.8,33.8z"/>
</g>
</svg>
