<?xml version="1.0" encoding="utf-8"?>
<!-- Generator: Adobe Illustrator 18.0.0, SVG Export Plug-In . SVG Version: 6.00 Build 0)  -->
<!DOCTYPE svg PUBLIC "-//W3C//DTD SVG 1.1//EN" "http://www.w3.org/Graphics/SVG/1.1/DTD/svg11.dtd">
<svg version="1.1" id="Layer_1" xmlns="http://www.w3.org/2000/svg" xmlns:xlink="http://www.w3.org/1999/xlink" x="0px" y="0px"
	 viewBox="0 0 50 50" enable-background="new 0 0 50 50" xml:space="preserve">
<path fill="#CCCCCC" d="M0,0v50h50V0H0z M37.2,33.3l-3.5,3.5c-0.2,0.2-0.3,0.3-0.6,0.4c-0.2,0.1-0.5,0.2-0.7,0.2c0,0-0.1,0-0.2,0
	c-0.1,0-0.2,0-0.3,0c-0.3,0-0.9-0.1-1.7-0.2c-0.7-0.1-1.7-0.4-2.7-0.8s-2.3-1.2-3.7-2c-1.4-0.9-2.8-2.2-4.4-3.7
	c-1.2-1.2-2.2-2.4-3.1-3.5c-0.8-1.1-1.5-2.2-2-3.1s-0.8-1.8-1.1-2.6c-0.2-0.7-0.4-1.4-0.5-2c-0.2-0.6-0.2-1.1-0.2-1.3
	c0-0.3,0-0.5,0-0.5c0-0.2,0.1-0.5,0.2-0.7c0.1-0.2,0.2-0.5,0.4-0.6l3.5-3.5c0.2-0.2,0.5-0.3,0.8-0.3c0.2,0,0.4,0.1,0.6,0.2
	c0.2,0.2,0.3,0.3,0.4,0.5l2.8,5.4c0.2,0.2,0.2,0.6,0.2,0.9c-0.1,0.3-0.2,0.6-0.4,0.8l-1.2,1.2c0,0-0.1,0.1-0.1,0.2
	c0,0.1,0,0.2,0,0.2c0.1,0.3,0.2,0.8,0.5,1.2c0.2,0.4,0.5,0.9,1,1.6c0.4,0.6,1.1,1.3,1.9,2.1c0.8,0.8,1.5,1.4,2.1,1.9
	c0.6,0.4,1.2,0.7,1.6,1s0.7,0.3,0.9,0.4l0.3,0.1c0,0,0.1,0,0.2,0c0.1,0,0.2-0.1,0.2-0.1l1.5-1.5c0.3-0.2,0.7-0.4,1.1-0.4
	c0.3,0,0.5,0.1,0.7,0.2l5.1,3c0.3,0.1,0.6,0.4,0.7,0.7C37.6,32.7,37.4,33,37.2,33.3z"/>
</svg>
